<?xml version="1.0" encoding="UTF-8"?> <svg xmlns="http://www.w3.org/2000/svg" width="1920" height="1160" viewBox="0 0 1920 1160" fill="none"><rect x="-24" y="-13" width="1968" height="1122" fill="#F9C314"></rect><g opacity="0.52"><path d="M49.603 1158.09C1199.48 602.719 1522.07 -524.553 2145.08 449.566" stroke="url(#paint0_linear_2812_14422)" stroke-width="3" stroke-miterlimit="10" stroke-linecap="round"></path><path d="M41.382 1122.55C1185.32 564.439 1515.65 -481.232 2141.34 433.821" stroke="url(#paint1_linear_2812_14422)" stroke-width="2.9018" stroke-miterlimit="10" stroke-linecap="round"></path><path d="M33.3636 1086.9C1171.19 526.005 1509.24 -437.818 2137.51 417.99" stroke="url(#paint2_linear_2812_14422)" stroke-width="2.8036" stroke-miterlimit="10" stroke-linecap="round"></path><path d="M25.1655 1051.33C1157.04 487.624 1502.82 -394.499 2133.73 402.223" stroke="url(#paint3_linear_2812_14422)" stroke-width="2.7054" stroke-miterlimit="10" stroke-linecap="round"></path><path d="M16.9929 1015.75C1142.88 449.192 1496.37 -351.179 2129.94 386.482" stroke="url(#paint4_linear_2812_14422)" stroke-width="2.6071" stroke-miterlimit="10" stroke-linecap="round"></path><path d="M9.00179 980.093C1128.71 410.693 1489.94 -307.782 2126.05 370.686" stroke="url(#paint5_linear_2812_14422)" stroke-width="2.5089" stroke-miterlimit="10" stroke-linecap="round"></path><path d="M0.883954 944.507C1114.54 372.192 1483.51 -264.487 2122.24 354.975" stroke="url(#paint6_linear_2812_14422)" stroke-width="2.4107" stroke-miterlimit="10" stroke-linecap="round"></path><path d="M-7.38753 908.995C1100.38 333.69 1477.05 -221.237 2118.47 339.378" stroke="url(#paint7_linear_2812_14422)" stroke-width="2.3125" stroke-miterlimit="10" stroke-linecap="round"></path><path d="M-15.4553 873.375C1086.22 295.087 1470.62 -177.968 2114.63 323.717" stroke="url(#paint8_linear_2812_14422)" stroke-width="2.2143" stroke-miterlimit="10" stroke-linecap="round"></path><path d="M-23.5244 837.759C1072.03 256.468 1464.14 -134.687 2110.75 308.117" stroke="url(#paint9_linear_2812_14422)" stroke-width="2.1161" stroke-miterlimit="10" stroke-linecap="round"></path><path d="M-31.6881 802.23C1057.87 217.843 1457.7 -91.4638 2106.96 292.597" stroke="url(#paint10_linear_2812_14422)" stroke-width="2.0179" stroke-miterlimit="10" stroke-linecap="round"></path><path d="M-39.8332 766.647C1043.69 179.121 1451.25 -48.2902 2103.18 277.076" stroke="url(#paint11_linear_2812_14422)" stroke-width="1.9196" stroke-miterlimit="10" stroke-linecap="round"></path><path d="M-47.9199 731.083C1029.57 140.394 1444.81 -5.08929 2099.43 261.625" stroke="url(#paint12_linear_2812_14422)" stroke-width="1.8214" stroke-miterlimit="10" stroke-linecap="round"></path><path d="M-56.0108 695.492C1015.44 101.616 1438.4 38.081 2095.68 246.172" stroke="url(#paint13_linear_2812_14422)" stroke-width="1.7232" stroke-miterlimit="10" stroke-linecap="round"></path><path d="M-64.1485 659.958C1001.35 62.7578 1432.01 81.2704 2092.08 230.792" stroke="url(#paint14_linear_2812_14422)" stroke-width="1.625" stroke-miterlimit="10" stroke-linecap="round"></path><path d="M-72.2621 624.397C987.306 23.8445 1425.65 124.481 2088.54 215.381" stroke="url(#paint15_linear_2812_14422)" stroke-width="1.5268" stroke-miterlimit="10" stroke-linecap="round"></path><path d="M-80.4495 588.895C973.277 -15.147 1419.33 167.733 2085.08 200.003" stroke="url(#paint16_linear_2812_14422)" stroke-width="1.4286" stroke-miterlimit="10" stroke-linecap="round"></path><path d="M-88.4598 553.292C959.326 -54.1735 1413.07 211.025 2081.66 184.57" stroke="url(#paint17_linear_2812_14422)" stroke-width="1.3304" stroke-miterlimit="10" stroke-linecap="round"></path><path d="M-96.646 517.795C945.386 -93.2969 1406.83 254.441 2078.37 169.071" stroke="url(#paint18_linear_2812_14422)" stroke-width="1.2321" stroke-miterlimit="10" stroke-linecap="round"></path><path d="M-104.707 482.223C931.445 -132.425 1400.59 297.899 2075.05 153.524" stroke="url(#paint19_linear_2812_14422)" stroke-width="1.1339" stroke-miterlimit="10" stroke-linecap="round"></path><path d="M-112.791 446.679C917.545 -171.634 1394.41 341.471 2071.85 137.906" stroke="url(#paint20_linear_2812_14422)" stroke-width="1.0357" stroke-miterlimit="10" stroke-linecap="round"></path><path d="M-120.901 411.143C903.662 -210.915 1388.24 385.168 2068.69 122.164" stroke="url(#paint21_linear_2812_14422)" stroke-width="0.9375" stroke-miterlimit="10" stroke-linecap="round"></path><path d="M-129.034 375.632C889.767 -250.272 1382.08 428.932 2065.57 106.338" stroke="url(#paint22_linear_2812_14422)" stroke-width="0.8393" stroke-miterlimit="10" stroke-linecap="round"></path><path d="M-137.14 340.12C875.872 -289.625 1375.92 472.824 2062.39 90.477" stroke="url(#paint23_linear_2812_14422)" stroke-width="0.7411" stroke-miterlimit="10" stroke-linecap="round"></path><path d="M-145.171 304.57C861.95 -328.974 1369.78 516.734 2059.19 74.5193" stroke="url(#paint24_linear_2812_14422)" stroke-width="0.6429" stroke-miterlimit="10" stroke-linecap="round"></path><path d="M-153.303 269.059C848.009 -368.446 1363.62 560.77 2056.01 58.507" stroke="url(#paint25_linear_2812_14422)" stroke-width="0.5446" stroke-miterlimit="10" stroke-linecap="round"></path><path d="M-161.406 233.57C834.04 -407.91 1357.46 604.856 2052.82 42.4253" stroke="url(#paint26_linear_2812_14422)" stroke-width="0.4464" stroke-miterlimit="10" stroke-linecap="round"></path><path d="M-169.459 198.044C820.095 -447.408 1351.28 648.965 2049.57 26.3001" stroke="url(#paint27_linear_2812_14422)" stroke-width="0.3482" stroke-miterlimit="10" stroke-linecap="round"></path><path d="M-177.565 162.532C806.085 -486.963 1345.08 693.157 2046.31 10.1325" stroke="url(#paint28_linear_2812_14422)" stroke-width="0.25" stroke-miterlimit="10" stroke-linecap="round"></path><path d="M49.603 1158.09C1199.48 602.719 1522.07 -524.553 2145.08 449.566" stroke="url(#paint29_linear_2812_14422)" stroke-width="3" stroke-miterlimit="10" stroke-linecap="round"></path><path d="M41.382 1122.55C1185.32 564.439 1515.65 -481.232 2141.34 433.821" stroke="url(#paint30_linear_2812_14422)" stroke-width="2.9018" stroke-miterlimit="10" stroke-linecap="round"></path><path d="M33.3636 1086.9C1171.19 526.005 1509.24 -437.818 2137.51 417.99" stroke="url(#paint31_linear_2812_14422)" stroke-width="2.8036" stroke-miterlimit="10" stroke-linecap="round"></path><path d="M25.1655 1051.33C1157.04 487.624 1502.82 -394.499 2133.73 402.223" stroke="url(#paint32_linear_2812_14422)" stroke-width="2.7054" stroke-miterlimit="10" stroke-linecap="round"></path><path d="M16.9929 1015.75C1142.88 449.192 1496.37 -351.179 2129.94 386.482" stroke="url(#paint33_linear_2812_14422)" stroke-width="2.6071" stroke-miterlimit="10" stroke-linecap="round"></path><path d="M9.00179 980.093C1128.71 410.693 1489.94 -307.782 2126.05 370.686" stroke="url(#paint34_linear_2812_14422)" stroke-width="2.5089" stroke-miterlimit="10" stroke-linecap="round"></path><path d="M0.883954 944.507C1114.54 372.192 1483.51 -264.487 2122.24 354.975" stroke="url(#paint35_linear_2812_14422)" stroke-width="2.4107" stroke-miterlimit="10" stroke-linecap="round"></path><path d="M-7.38753 908.995C1100.38 333.69 1477.05 -221.237 2118.47 339.378" stroke="url(#paint36_linear_2812_14422)" stroke-width="2.3125" stroke-miterlimit="10" stroke-linecap="round"></path><path d="M-15.4553 873.375C1086.22 295.087 1470.62 -177.968 2114.63 323.717" stroke="url(#paint37_linear_2812_14422)" stroke-width="2.2143" stroke-miterlimit="10" stroke-linecap="round"></path><path d="M-23.5244 837.759C1072.03 256.468 1464.14 -134.687 2110.75 308.117" stroke="url(#paint38_linear_2812_14422)" stroke-width="2.1161" stroke-miterlimit="10" stroke-linecap="round"></path><path d="M-31.6881 802.23C1057.87 217.843 1457.7 -91.4638 2106.96 292.597" stroke="url(#paint39_linear_2812_14422)" stroke-width="2.0179" stroke-miterlimit="10" stroke-linecap="round"></path><path d="M-39.8332 766.647C1043.69 179.121 1451.25 -48.2902 2103.18 277.076" stroke="url(#paint40_linear_2812_14422)" stroke-width="1.9196" stroke-miterlimit="10" stroke-linecap="round"></path><path d="M-47.9199 731.083C1029.57 140.394 1444.81 -5.08929 2099.43 261.625" stroke="url(#paint41_linear_2812_14422)" stroke-width="1.8214" stroke-miterlimit="10" stroke-linecap="round"></path><path d="M-56.0108 695.492C1015.44 101.616 1438.4 38.081 2095.68 246.172" stroke="url(#paint42_linear_2812_14422)" stroke-width="1.7232" stroke-miterlimit="10" stroke-linecap="round"></path><path d="M-64.1485 659.958C1001.35 62.7578 1432.01 81.2704 2092.08 230.792" stroke="url(#paint43_linear_2812_14422)" stroke-width="1.625" stroke-miterlimit="10" stroke-linecap="round"></path><path d="M-72.2621 624.397C987.306 23.8445 1425.65 124.481 2088.54 215.381" stroke="url(#paint44_linear_2812_14422)" stroke-width="1.5268" stroke-miterlimit="10" stroke-linecap="round"></path><path d="M-80.4495 588.895C973.277 -15.147 1419.33 167.733 2085.08 200.003" stroke="url(#paint45_linear_2812_14422)" stroke-width="1.4286" stroke-miterlimit="10" stroke-linecap="round"></path><path d="M-88.4598 553.292C959.326 -54.1735 1413.07 211.025 2081.66 184.57" stroke="url(#paint46_linear_2812_14422)" stroke-width="1.3304" stroke-miterlimit="10" stroke-linecap="round"></path><path d="M-96.646 517.795C945.386 -93.2969 1406.83 254.441 2078.37 169.071" stroke="url(#paint47_linear_2812_14422)" stroke-width="1.2321" stroke-miterlimit="10" stroke-linecap="round"></path><path d="M-104.707 482.223C931.445 -132.425 1400.59 297.899 2075.05 153.524" stroke="url(#paint48_linear_2812_14422)" stroke-width="1.1339" stroke-miterlimit="10" stroke-linecap="round"></path><path d="M-112.791 446.679C917.545 -171.634 1394.41 341.471 2071.85 137.906" stroke="url(#paint49_linear_2812_14422)" stroke-width="1.0357" stroke-miterlimit="10" stroke-linecap="round"></path><path d="M-120.901 411.143C903.662 -210.915 1388.24 385.168 2068.69 122.164" stroke="url(#paint50_linear_2812_14422)" stroke-width="0.9375" stroke-miterlimit="10" stroke-linecap="round"></path><path d="M-129.034 375.632C889.767 -250.272 1382.08 428.932 2065.57 106.338" stroke="url(#paint51_linear_2812_14422)" stroke-width="0.8393" stroke-miterlimit="10" stroke-linecap="round"></path><path d="M-137.14 340.12C875.872 -289.625 1375.92 472.824 2062.39 90.477" stroke="url(#paint52_linear_2812_14422)" stroke-width="0.7411" stroke-miterlimit="10" stroke-linecap="round"></path><path d="M-145.171 304.57C861.95 -328.974 1369.78 516.734 2059.19 74.5193" stroke="url(#paint53_linear_2812_14422)" stroke-width="0.6429" stroke-miterlimit="10" stroke-linecap="round"></path><path d="M-153.303 269.059C848.009 -368.446 1363.62 560.77 2056.01 58.507" stroke="url(#paint54_linear_2812_14422)" stroke-width="0.5446" stroke-miterlimit="10" stroke-linecap="round"></path><path d="M-161.406 233.57C834.04 -407.91 1357.46 604.856 2052.82 42.4253" stroke="url(#paint55_linear_2812_14422)" stroke-width="0.4464" stroke-miterlimit="10" stroke-linecap="round"></path><path d="M-169.459 198.044C820.095 -447.408 1351.28 648.965 2049.57 26.3001" stroke="url(#paint56_linear_2812_14422)" stroke-width="0.3482" stroke-miterlimit="10" stroke-linecap="round"></path><path d="M-177.565 162.532C806.085 -486.963 1345.08 693.157 2046.31 10.1325" stroke="url(#paint57_linear_2812_14422)" stroke-width="0.25" stroke-miterlimit="10" stroke-linecap="round"></path></g><defs><linearGradient id="paint0_linear_2812_14422" x1="994.518" y1="171.093" x2="1126.47" y2="983.091" gradientUnits="userSpaceOnUse"><stop stop-color="#AE8D1E"></stop><stop offset="1" stop-color="#AD9238" stop-opacity="0"></stop></linearGradient><linearGradient id="paint1_linear_2812_14422" x1="993.382" y1="175.258" x2="1118.87" y2="947.449" gradientUnits="userSpaceOnUse"><stop stop-color="#AE8D1E"></stop><stop offset="1" stop-color="#AD9238" stop-opacity="0"></stop></linearGradient><linearGradient id="paint2_linear_2812_14422" x1="992.294" y1="179.297" x2="1111.32" y2="911.722" gradientUnits="userSpaceOnUse"><stop stop-color="#AE8D1E"></stop><stop offset="1" stop-color="#AD9238" stop-opacity="0"></stop></linearGradient><linearGradient id="paint3_linear_2812_14422" x1="991.12" y1="183.227" x2="1103.71" y2="876.054" gradientUnits="userSpaceOnUse"><stop stop-color="#AE8D1E"></stop><stop offset="1" stop-color="#AD9238" stop-opacity="0"></stop></linearGradient><linearGradient id="paint4_linear_2812_14422" x1="989.921" y1="187.013" x2="1096.1" y2="840.384" gradientUnits="userSpaceOnUse"><stop stop-color="#AE8D1E"></stop><stop offset="1" stop-color="#AD9238" stop-opacity="0"></stop></linearGradient><linearGradient id="paint5_linear_2812_14422" x1="988.749" y1="190.615" x2="1088.54" y2="804.661" gradientUnits="userSpaceOnUse"><stop stop-color="#AE8D1E"></stop><stop offset="1" stop-color="#AD9238" stop-opacity="0"></stop></linearGradient><linearGradient id="paint6_linear_2812_14422" x1="987.498" y1="193.991" x2="1080.94" y2="768.991" gradientUnits="userSpaceOnUse"><stop stop-color="#AE8D1E"></stop><stop offset="1" stop-color="#AD9238" stop-opacity="0"></stop></linearGradient><linearGradient id="paint7_linear_2812_14422" x1="986.137" y1="197.112" x2="1073.28" y2="733.378" gradientUnits="userSpaceOnUse"><stop stop-color="#AE8D1E"></stop><stop offset="1" stop-color="#AD9238" stop-opacity="0"></stop></linearGradient><linearGradient id="paint8_linear_2812_14422" x1="984.792" y1="199.819" x2="1065.7" y2="697.68" gradientUnits="userSpaceOnUse"><stop stop-color="#AE8D1E"></stop><stop offset="1" stop-color="#AD9238" stop-opacity="0"></stop></linearGradient><linearGradient id="paint9_linear_2812_14422" x1="983.341" y1="202.055" x2="1058.08" y2="661.99" gradientUnits="userSpaceOnUse"><stop stop-color="#AE8D1E"></stop><stop offset="1" stop-color="#AD9238" stop-opacity="0"></stop></linearGradient><linearGradient id="paint10_linear_2812_14422" x1="981.772" y1="203.642" x2="1050.47" y2="626.372" gradientUnits="userSpaceOnUse"><stop stop-color="#AE8D1E"></stop><stop offset="1" stop-color="#AD9238" stop-opacity="0"></stop></linearGradient><linearGradient id="paint11_linear_2812_14422" x1="980.061" y1="204.272" x2="1042.86" y2="590.702" gradientUnits="userSpaceOnUse"><stop stop-color="#AE8D1E"></stop><stop offset="1" stop-color="#AD9238" stop-opacity="0"></stop></linearGradient><linearGradient id="paint12_linear_2812_14422" x1="978.192" y1="203.671" x2="1035.29" y2="555.053" gradientUnits="userSpaceOnUse"><stop stop-color="#AE8D1E"></stop><stop offset="1" stop-color="#AD9238" stop-opacity="0"></stop></linearGradient><linearGradient id="paint13_linear_2812_14422" x1="976.037" y1="201.309" x2="1027.73" y2="519.378" gradientUnits="userSpaceOnUse"><stop stop-color="#AE8D1E"></stop><stop offset="1" stop-color="#AD9238" stop-opacity="0"></stop></linearGradient><linearGradient id="paint14_linear_2812_14422" x1="973.543" y1="196.617" x2="1020.2" y2="483.743" gradientUnits="userSpaceOnUse"><stop stop-color="#AE8D1E"></stop><stop offset="1" stop-color="#AD9238" stop-opacity="0"></stop></linearGradient><linearGradient id="paint15_linear_2812_14422" x1="970.612" y1="188.974" x2="1012.72" y2="448.08" gradientUnits="userSpaceOnUse"><stop stop-color="#AE8D1E"></stop><stop offset="1" stop-color="#AD9238" stop-opacity="0"></stop></linearGradient><linearGradient id="paint16_linear_2812_14422" x1="967.135" y1="177.976" x2="1005.24" y2="412.462" gradientUnits="userSpaceOnUse"><stop stop-color="#AE8D1E"></stop><stop offset="1" stop-color="#AD9238" stop-opacity="0"></stop></linearGradient><linearGradient id="paint17_linear_2812_14422" x1="963.218" y1="163.506" x2="997.872" y2="376.755" gradientUnits="userSpaceOnUse"><stop stop-color="#AE8D1E"></stop><stop offset="1" stop-color="#AD9238" stop-opacity="0"></stop></linearGradient><linearGradient id="paint18_linear_2812_14422" x1="958.753" y1="145.839" x2="991.238" y2="345.738" gradientUnits="userSpaceOnUse"><stop stop-color="#AE8D1E"></stop><stop offset="1" stop-color="#AD9238" stop-opacity="0"></stop></linearGradient><linearGradient id="paint19_linear_2812_14422" x1="953.886" y1="125.354" x2="987.466" y2="331.992" gradientUnits="userSpaceOnUse"><stop stop-color="#AE8D1E"></stop><stop offset="1" stop-color="#AD9238" stop-opacity="0"></stop></linearGradient><linearGradient id="paint20_linear_2812_14422" x1="948.689" y1="102.509" x2="984.809" y2="324.775" gradientUnits="userSpaceOnUse"><stop stop-color="#AE8D1E"></stop><stop offset="1" stop-color="#AD9238" stop-opacity="0"></stop></linearGradient><linearGradient id="paint21_linear_2812_14422" x1="943.191" y1="77.7193" x2="982.815" y2="321.545" gradientUnits="userSpaceOnUse"><stop stop-color="#AE8D1E"></stop><stop offset="1" stop-color="#AD9238" stop-opacity="0"></stop></linearGradient><linearGradient id="paint22_linear_2812_14422" x1="937.447" y1="51.3336" x2="981.215" y2="320.659" gradientUnits="userSpaceOnUse"><stop stop-color="#AE8D1E"></stop><stop offset="1" stop-color="#AD9238" stop-opacity="0"></stop></linearGradient><linearGradient id="paint23_linear_2812_14422" x1="931.483" y1="23.6771" x2="979.847" y2="321.284" gradientUnits="userSpaceOnUse"><stop stop-color="#AE8D1E"></stop><stop offset="1" stop-color="#AD9238" stop-opacity="0"></stop></linearGradient><linearGradient id="paint24_linear_2812_14422" x1="925.385" y1="-5.05889" x2="978.672" y2="322.851" gradientUnits="userSpaceOnUse"><stop stop-color="#AE8D1E"></stop><stop offset="1" stop-color="#AD9238" stop-opacity="0"></stop></linearGradient><linearGradient id="paint25_linear_2812_14422" x1="919.1" y1="-34.6925" x2="977.573" y2="325.124" gradientUnits="userSpaceOnUse"><stop stop-color="#AE8D1E"></stop><stop offset="1" stop-color="#AD9238" stop-opacity="0"></stop></linearGradient><linearGradient id="paint26_linear_2812_14422" x1="912.711" y1="-65.0406" x2="976.563" y2="327.877" gradientUnits="userSpaceOnUse"><stop stop-color="#AE8D1E"></stop><stop offset="1" stop-color="#AD9238" stop-opacity="0"></stop></linearGradient><linearGradient id="paint27_linear_2812_14422" x1="906.221" y1="-96.0266" x2="975.613" y2="330.982" gradientUnits="userSpaceOnUse"><stop stop-color="#AE8D1E"></stop><stop offset="1" stop-color="#AD9238" stop-opacity="0"></stop></linearGradient><linearGradient id="paint28_linear_2812_14422" x1="899.616" y1="-127.542" x2="974.681" y2="334.379" gradientUnits="userSpaceOnUse"><stop stop-color="#AE8D1E"></stop><stop offset="1" stop-color="#AD9238" stop-opacity="0"></stop></linearGradient><linearGradient id="paint29_linear_2812_14422" x1="994.518" y1="171.093" x2="1126.47" y2="983.091" gradientUnits="userSpaceOnUse"><stop stop-color="#AE8D1E"></stop><stop offset="1" stop-color="#AD9238" stop-opacity="0"></stop></linearGradient><linearGradient id="paint30_linear_2812_14422" x1="993.382" y1="175.258" x2="1118.87" y2="947.449" gradientUnits="userSpaceOnUse"><stop stop-color="#AE8D1E"></stop><stop offset="1" stop-color="#AD9238" stop-opacity="0"></stop></linearGradient><linearGradient id="paint31_linear_2812_14422" x1="992.294" y1="179.297" x2="1111.32" y2="911.722" gradientUnits="userSpaceOnUse"><stop stop-color="#AE8D1E"></stop><stop offset="1" stop-color="#AD9238" stop-opacity="0"></stop></linearGradient><linearGradient id="paint32_linear_2812_14422" x1="991.12" y1="183.227" x2="1103.71" y2="876.054" gradientUnits="userSpaceOnUse"><stop stop-color="#AE8D1E"></stop><stop offset="1" stop-color="#AD9238" stop-opacity="0"></stop></linearGradient><linearGradient id="paint33_linear_2812_14422" x1="989.921" y1="187.013" x2="1096.1" y2="840.384" gradientUnits="userSpaceOnUse"><stop stop-color="#AE8D1E"></stop><stop offset="1" stop-color="#AD9238" stop-opacity="0"></stop></linearGradient><linearGradient id="paint34_linear_2812_14422" x1="988.749" y1="190.615" x2="1088.54" y2="804.661" gradientUnits="userSpaceOnUse"><stop stop-color="#AE8D1E"></stop><stop offset="1" stop-color="#AD9238" stop-opacity="0"></stop></linearGradient><linearGradient id="paint35_linear_2812_14422" x1="987.498" y1="193.991" x2="1080.94" y2="768.991" gradientUnits="userSpaceOnUse"><stop stop-color="#AE8D1E"></stop><stop offset="1" stop-color="#AD9238" stop-opacity="0"></stop></linearGradient><linearGradient id="paint36_linear_2812_14422" x1="986.137" y1="197.112" x2="1073.28" y2="733.378" gradientUnits="userSpaceOnUse"><stop stop-color="#AE8D1E"></stop><stop offset="1" stop-color="#AD9238" stop-opacity="0"></stop></linearGradient><linearGradient id="paint37_linear_2812_14422" x1="984.792" y1="199.819" x2="1065.7" y2="697.68" gradientUnits="userSpaceOnUse"><stop stop-color="#AE8D1E"></stop><stop offset="1" stop-color="#AD9238" stop-opacity="0"></stop></linearGradient><linearGradient id="paint38_linear_2812_14422" x1="983.341" y1="202.055" x2="1058.08" y2="661.99" gradientUnits="userSpaceOnUse"><stop stop-color="#AE8D1E"></stop><stop offset="1" stop-color="#AD9238" stop-opacity="0"></stop></linearGradient><linearGradient id="paint39_linear_2812_14422" x1="981.772" y1="203.642" x2="1050.47" y2="626.372" gradientUnits="userSpaceOnUse"><stop stop-color="#AE8D1E"></stop><stop offset="1" stop-color="#AD9238" stop-opacity="0"></stop></linearGradient><linearGradient id="paint40_linear_2812_14422" x1="980.061" y1="204.272" x2="1042.86" y2="590.702" gradientUnits="userSpaceOnUse"><stop stop-color="#AE8D1E"></stop><stop offset="1" stop-color="#AD9238" stop-opacity="0"></stop></linearGradient><linearGradient id="paint41_linear_2812_14422" x1="978.192" y1="203.671" x2="1035.29" y2="555.053" gradientUnits="userSpaceOnUse"><stop stop-color="#AE8D1E"></stop><stop offset="1" stop-color="#AD9238" stop-opacity="0"></stop></linearGradient><linearGradient id="paint42_linear_2812_14422" x1="976.037" y1="201.309" x2="1027.73" y2="519.378" gradientUnits="userSpaceOnUse"><stop stop-color="#AE8D1E"></stop><stop offset="1" stop-color="#AD9238" stop-opacity="0"></stop></linearGradient><linearGradient id="paint43_linear_2812_14422" x1="973.543" y1="196.617" x2="1020.2" y2="483.743" gradientUnits="userSpaceOnUse"><stop stop-color="#AE8D1E"></stop><stop offset="1" stop-color="#AD9238" stop-opacity="0"></stop></linearGradient><linearGradient id="paint44_linear_2812_14422" x1="970.612" y1="188.974" x2="1012.72" y2="448.08" gradientUnits="userSpaceOnUse"><stop stop-color="#AE8D1E"></stop><stop offset="1" stop-color="#AD9238" stop-opacity="0"></stop></linearGradient><linearGradient id="paint45_linear_2812_14422" x1="967.135" y1="177.976" x2="1005.24" y2="412.462" gradientUnits="userSpaceOnUse"><stop stop-color="#AE8D1E"></stop><stop offset="1" stop-color="#AD9238" stop-opacity="0"></stop></linearGradient><linearGradient id="paint46_linear_2812_14422" x1="963.218" y1="163.506" x2="997.872" y2="376.755" gradientUnits="userSpaceOnUse"><stop stop-color="#AE8D1E"></stop><stop offset="1" stop-color="#AD9238" stop-opacity="0"></stop></linearGradient><linearGradient id="paint47_linear_2812_14422" x1="958.753" y1="145.839" x2="991.238" y2="345.738" gradientUnits="userSpaceOnUse"><stop stop-color="#AE8D1E"></stop><stop offset="1" stop-color="#AD9238" stop-opacity="0"></stop></linearGradient><linearGradient id="paint48_linear_2812_14422" x1="953.886" y1="125.354" x2="987.466" y2="331.992" gradientUnits="userSpaceOnUse"><stop stop-color="#AE8D1E"></stop><stop offset="1" stop-color="#AD9238" stop-opacity="0"></stop></linearGradient><linearGradient id="paint49_linear_2812_14422" x1="948.689" y1="102.509" x2="984.809" y2="324.775" gradientUnits="userSpaceOnUse"><stop stop-color="#AE8D1E"></stop><stop offset="1" stop-color="#AD9238" stop-opacity="0"></stop></linearGradient><linearGradient id="paint50_linear_2812_14422" x1="943.191" y1="77.7193" x2="982.815" y2="321.545" gradientUnits="userSpaceOnUse"><stop stop-color="#AE8D1E"></stop><stop offset="1" stop-color="#AD9238" stop-opacity="0"></stop></linearGradient><linearGradient id="paint51_linear_2812_14422" x1="937.447" y1="51.3336" x2="981.215" y2="320.659" gradientUnits="userSpaceOnUse"><stop stop-color="#AE8D1E"></stop><stop offset="1" stop-color="#AD9238" stop-opacity="0"></stop></linearGradient><linearGradient id="paint52_linear_2812_14422" x1="931.483" y1="23.6771" x2="979.847" y2="321.284" gradientUnits="userSpaceOnUse"><stop stop-color="#AE8D1E"></stop><stop offset="1" stop-color="#AD9238" stop-opacity="0"></stop></linearGradient><linearGradient id="paint53_linear_2812_14422" x1="925.385" y1="-5.05889" x2="978.672" y2="322.851" gradientUnits="userSpaceOnUse"><stop stop-color="#AE8D1E"></stop><stop offset="1" stop-color="#AD9238" stop-opacity="0"></stop></linearGradient><linearGradient id="paint54_linear_2812_14422" x1="919.1" y1="-34.6925" x2="977.573" y2="325.124" gradientUnits="userSpaceOnUse"><stop stop-color="#AE8D1E"></stop><stop offset="1" stop-color="#AD9238" stop-opacity="0"></stop></linearGradient><linearGradient id="paint55_linear_2812_14422" x1="912.711" y1="-65.0406" x2="976.563" y2="327.877" gradientUnits="userSpaceOnUse"><stop stop-color="#AE8D1E"></stop><stop offset="1" stop-color="#AD9238" stop-opacity="0"></stop></linearGradient><linearGradient id="paint56_linear_2812_14422" x1="906.221" y1="-96.0266" x2="975.613" y2="330.982" gradientUnits="userSpaceOnUse"><stop stop-color="#AE8D1E"></stop><stop offset="1" stop-color="#AD9238" stop-opacity="0"></stop></linearGradient><linearGradient id="paint57_linear_2812_14422" x1="899.616" y1="-127.542" x2="974.681" y2="334.379" gradientUnits="userSpaceOnUse"><stop stop-color="#AE8D1E"></stop><stop offset="1" stop-color="#AD9238" stop-opacity="0"></stop></linearGradient></defs></svg> 